<?xml version="1.0" encoding="utf-8"?>
<!-- Generator: Adobe Illustrator 25.4.1, SVG Export Plug-In . SVG Version: 6.00 Build 0)  -->
<svg version="1.1" id="Capa_1" xmlns="http://www.w3.org/2000/svg" xmlns:xlink="http://www.w3.org/1999/xlink" x="0px" y="0px"
	 viewBox="0 0 250 232.8" style="enable-background:new 0 0 250 232.8;" xml:space="preserve">
<style type="text/css">
	.st0{fill-rule:evenodd;clip-rule:evenodd;fill:#FFF65C;}
</style>
<path class="st0" d="M112,128.6c0,7.2,5.8,13,13,13s13-5.8,13-13V89.6c0-7.2-5.8-13-13-13s-13,5.8-13,13V128.6z M138,167.6
	c0-7.2-5.8-13-13-13c-7.2,0-13,5.8-13,13v0.2c0,7.2,5.8,13,13,13c7.2,0,13-5.8,13-13V167.6z M90.9,20.1c14.9-26.8,53.4-26.8,68.2,0
	L245,174.8c14.5,26.1-4.4,58-34.1,58H39.1c-29.8,0-48.6-32-34.1-58L90.9,20.1z"/>
</svg>
